<?xml version="1.0" encoding="UTF-8"?><svg id="Layer_2" xmlns="http://www.w3.org/2000/svg" viewBox="0 0 325 675"><defs><style>.cls-1,.cls-2{fill:none;stroke:#414042;stroke-miterlimit:10;stroke-width:10px;}.cls-2{stroke-linecap:round;}</style></defs><g><circle class="cls-1" cx="164.85" cy="514.31" r="135"/><circle class="cls-1" cx="164.85" cy="514.31" r="115"/><path class="cls-2" d="M164.85,535.51l-28.8,28.8c-5.8,5.9-15.3,5.9-21.2,0-3-3-4.4-6.8-4.4-10.6s1.4-7.7,4.4-10.6l28.8-28.8"/><path class="cls-2" d="M164.85,493.11l28.8-28.8c5.8-5.9,15.3-5.9,21.2,0s5.9,15.4,0,21.2l-28.8,28.8"/><path class="cls-2" d="M214.85,564.31h0c5.86-5.86,5.86-15.35,0-21.21l-78.79-78.79c-5.86-5.86-15.35-5.86-21.21,0h0c-5.86,5.86-5.86,15.35,0,21.21l78.79,78.79c5.86,5.86,15.35,5.86,21.21,0Z"/></g><g><circle class="cls-1" cx="162.5" cy="160.69" r="135"/><circle class="cls-1" cx="162.5" cy="160.69" r="115"/><path class="cls-2" d="M162.5,181.89l-28.8,28.8c-5.8,5.9-15.3,5.9-21.2,0-3-3-4.4-6.8-4.4-10.6s1.4-7.7,4.4-10.6l28.8-28.8"/><path class="cls-2" d="M162.5,139.49l28.8-28.8c5.8-5.9,15.3-5.9,21.2,0s5.9,15.4,0,21.2l-28.8,28.8"/><path class="cls-2" d="M212.5,210.69h0c5.86-5.86,5.86-15.35,0-21.21l-78.79-78.79c-5.86-5.86-15.35-5.86-21.21,0h0c-5.86,5.86-5.86,15.35,0,21.21l78.79,78.79c5.86,5.86,15.35,5.86,21.21,0Z"/></g></svg>